<?xml version="1.0" encoding="UTF-8"?> <svg xmlns="http://www.w3.org/2000/svg" width="264" height="60" viewBox="0 0 264 60" fill="none"><path d="M72.636 28.6948C76.6503 28.6948 79.3448 30.5026 80.9945 32.7486V0.75636C80.9945 0.153767 80.2796 -0.229702 79.7847 0.153767L40.1372 29.0235H41.182C45.3062 29.0235 47.3958 31.653 47.3958 34.5016C47.3958 36.7477 46.241 38.3911 44.6463 39.1032C44.3714 39.2128 44.3714 39.5963 44.6463 39.7058C46.461 40.4728 47.7807 42.3901 47.7807 44.6909C47.7807 47.9778 45.6361 50.5525 41.5119 50.5525H30.239C30.0191 50.5525 29.7991 50.3882 29.7991 50.1143V36.5285L0.269694 58.0576C-0.225212 58.4958 -0.00525569 59.2628 0.65462 59.2628H80.2796C80.6645 59.2628 80.9395 58.9889 80.9395 58.6054V47.7039C78.7949 49.676 75.9904 50.936 72.5811 50.936C66.2023 50.936 61.0332 46.5535 61.0332 39.8154C61.0882 33.0225 66.3122 28.6948 72.636 28.6948ZM56.854 50.1691C56.854 50.3882 56.689 50.5525 56.4691 50.5525H52.6748C52.4549 50.5525 52.2899 50.3882 52.2899 50.1691V29.407C52.2899 29.1878 52.4549 29.0235 52.6748 29.0235H56.4691C56.689 29.0235 56.854 29.1878 56.854 29.407V50.1691Z" fill="white"></path><path d="M34.8579 37.5692H40.1919C41.7316 37.5692 42.7214 36.6927 42.7214 35.3232C42.7214 34.0084 41.7316 33.0771 40.1919 33.0771H34.6379C34.5279 33.0771 34.418 33.1867 34.418 33.2963V37.1857C34.418 37.4049 34.6379 37.5692 34.8579 37.5692Z" fill="white"></path><path d="M34.8579 46.5534H40.4118C42.1165 46.5534 43.1613 45.6221 43.1613 44.0882C43.1613 42.7187 42.1715 41.623 40.4118 41.623H34.8579C34.6379 41.623 34.418 41.7874 34.418 42.0613V46.1151C34.418 46.3342 34.6379 46.5534 34.8579 46.5534Z" fill="white"></path><path d="M77.5302 35.2137C76.4854 33.8442 74.7257 32.7485 72.6361 32.7485C68.6768 32.7485 65.8174 35.7615 65.8174 39.8153C65.8174 43.8691 68.6768 46.8821 72.6361 46.8821C74.4508 46.8821 76.1554 46.1152 77.0903 45.3482C77.1453 45.2934 77.2002 45.1839 77.2002 45.0743V42.9926C77.2002 42.8283 77.0353 42.6639 76.8703 42.6639H71.9762C71.7013 42.6639 71.5363 42.4448 71.5363 42.2257V39.1579C71.5363 38.884 71.7563 38.7197 71.9762 38.7197H81.0495V33.8442L78.1351 35.4328C77.9151 35.4876 77.6402 35.378 77.5302 35.2137Z" fill="white"></path><path d="M84.4036 39.8154C84.4036 33.1869 89.1876 28.6948 95.3465 28.6948C99.3607 28.6948 101.945 30.7217 103.485 33.1869C103.595 33.3512 103.54 33.6251 103.32 33.6799L100.845 34.9947C100.68 35.1042 100.461 35.0495 100.406 34.8851C99.3607 33.2417 97.4361 32.0365 95.3465 32.0365C91.2223 32.0365 88.1429 35.2686 88.1429 39.8154C88.1429 44.3075 91.2223 47.5944 95.3465 47.5944C97.4361 47.5944 99.3607 46.3892 100.406 44.7457C100.515 44.5814 100.68 44.5266 100.845 44.6362L103.32 45.8961C103.54 46.0057 103.595 46.2248 103.485 46.4439C101.89 48.9091 99.3057 50.9908 95.3465 50.9908C89.1876 50.936 84.4036 46.3892 84.4036 39.8154Z" fill="white"></path><path d="M105.63 39.8153C105.63 34.4468 108.709 30.2834 113.328 29.0782C121.192 26.9965 128.396 34.3372 126.691 42.4996C125.646 47.5395 121.632 50.9907 116.298 50.9907C110.029 50.9359 105.63 46.2247 105.63 39.8153ZM123.172 39.8153C123.172 35.3781 120.422 32.0364 116.243 32.0364C112.009 32.0364 109.314 35.3781 109.314 39.8153C109.314 44.2526 112.009 47.5943 116.243 47.5943C120.477 47.5943 123.172 44.1978 123.172 39.8153Z" fill="white"></path><path d="M149.346 50.2787V33.8991L142.803 50.3882C142.803 50.443 142.693 50.4978 142.638 50.4978H141.263C141.208 50.4978 141.098 50.443 141.098 50.3882L134.499 33.8991V50.2787C134.499 50.443 134.389 50.5526 134.224 50.5526H130.925C130.76 50.5526 130.65 50.443 130.65 50.2787V29.2427C130.65 29.0783 130.76 28.9688 130.925 28.9688H135.654C135.874 28.9688 136.039 29.0783 136.149 29.2974L141.923 44.0884L147.642 29.2974C147.697 29.0783 147.917 28.9688 148.137 28.9688H152.866C153.031 28.9688 153.141 29.0783 153.141 29.2427V50.2787C153.141 50.443 153.031 50.5526 152.866 50.5526H149.566C149.511 50.5526 149.346 50.443 149.346 50.2787Z" fill="white"></path><path d="M186.74 50.169V29.4069C186.74 29.1878 186.905 29.0234 187.125 29.0234H201.147C201.367 29.0234 201.532 29.1878 201.532 29.4069V31.9268C201.532 32.146 201.367 32.3103 201.147 32.3103H190.919C190.699 32.3103 190.534 32.4747 190.534 32.6938V37.4598C190.534 37.6789 190.699 37.8432 190.919 37.8432H200.927C201.147 37.8432 201.312 38.0076 201.312 38.2267V40.7466C201.312 40.9658 201.147 41.1301 200.927 41.1301H190.919C190.699 41.1301 190.534 41.2944 190.534 41.5136V46.7178C190.534 46.9369 190.699 47.1013 190.919 47.1013H201.147C201.367 47.1013 201.532 47.2656 201.532 47.4847V50.0047C201.532 50.2238 201.367 50.3881 201.147 50.3881H187.125C186.905 50.5525 186.74 50.3881 186.74 50.169Z" fill="white"></path><path d="M219.129 50.3333L214.564 42.664C214.509 42.5544 214.345 42.4996 214.235 42.4996H211.045C210.825 42.4996 210.66 42.664 210.66 42.8831V50.169C210.66 50.3881 210.495 50.5525 210.275 50.5525H207.306C207.086 50.5525 206.921 50.3881 206.921 50.169V29.4069C206.921 29.1878 207.086 29.0234 207.306 29.0234H216.434C220.723 29.0234 223.528 31.7625 223.528 35.7615C223.528 39.3223 221.328 41.3492 218.909 41.9518C218.634 42.0066 218.524 42.2805 218.634 42.5544C219.514 43.9787 222.263 48.3612 223.308 49.9499C223.473 50.2238 223.308 50.5525 222.978 50.5525H219.514C219.349 50.5525 219.239 50.4977 219.129 50.3333ZM219.623 35.7068C219.623 33.6251 218.084 32.3103 215.939 32.3103H211.1C210.88 32.3103 210.715 32.4747 210.715 32.6938V38.7745C210.715 38.9936 210.88 39.158 211.1 39.158H215.939C218.084 39.158 219.623 37.8432 219.623 35.7068Z" fill="white"></path><path d="M249.153 50.169V29.4069C249.153 29.1878 249.318 29.0234 249.538 29.0234H263.615C263.835 29.0234 264 29.1878 264 29.4069V31.9816C264 32.2007 263.835 32.3651 263.615 32.3651H253.332C253.112 32.3651 252.947 32.5294 252.947 32.7486V37.5693C252.947 37.7884 253.112 37.9528 253.332 37.9528H263.34C263.56 37.9528 263.725 38.1171 263.725 38.3363V40.911C263.725 41.1301 263.56 41.2944 263.34 41.2944H253.332C253.112 41.2944 252.947 41.4588 252.947 41.6779V46.9369C252.947 47.156 253.112 47.3204 253.332 47.3204H263.615C263.835 47.3204 264 47.4847 264 47.7038V50.2786C264 50.4977 263.835 50.662 263.615 50.662H249.538C249.318 50.5525 249.153 50.3881 249.153 50.169Z" fill="white"></path><path d="M226.277 39.7061C226.277 33.0775 231.061 28.5854 237.22 28.5854C241.234 28.5854 243.819 30.6124 245.358 33.0775C245.468 33.2419 245.413 33.5158 245.193 33.5705L242.719 34.8853C242.554 34.9949 242.334 34.9401 242.279 34.7757C241.234 33.1323 239.309 31.9271 237.22 31.9271C233.096 31.9271 230.016 35.1592 230.016 39.7061C230.016 44.1981 233.096 47.485 237.22 47.485C239.309 47.485 241.234 46.2798 242.279 44.6364C242.389 44.472 242.554 44.4172 242.719 44.5268L245.193 45.7868C245.413 45.8963 245.468 46.1155 245.358 46.3346C243.764 48.7997 241.179 50.8814 237.22 50.8814C231.061 50.8267 226.277 46.3346 226.277 39.7061Z" fill="white"></path><path d="M177.391 50.2787V33.8991L170.848 50.3882C170.848 50.443 170.738 50.4978 170.683 50.4978H169.308C169.253 50.4978 169.143 50.443 169.143 50.3882L162.544 33.8991V50.2787C162.544 50.443 162.434 50.5526 162.269 50.5526H158.97C158.805 50.5526 158.695 50.443 158.695 50.2787V29.2427C158.695 29.0783 158.805 28.9688 158.97 28.9688H163.699C163.919 28.9688 164.084 29.0783 164.194 29.2974L169.968 44.0884L175.687 29.2974C175.742 29.0783 175.962 28.9688 176.181 28.9688H180.911C181.076 28.9688 181.186 29.0783 181.186 29.2427V50.2787C181.186 50.443 181.076 50.5526 180.911 50.5526H177.611C177.501 50.5526 177.391 50.443 177.391 50.2787Z" fill="white"></path></svg> 