<?xml version="1.0" encoding="UTF-8"?> <svg xmlns="http://www.w3.org/2000/svg" width="116.138" height="24" viewBox="0 0 116.138 24"><g id="Group_1406" data-name="Group 1406" transform="translate(-73.873 -19.937)"><path id="Path_1665" data-name="Path 1665" d="M95.545,26.758c-.766-3.929-3.4-6.778-8.146-6.821h-.207a12.63,12.63,0,0,0-11.568,6.821,15.908,15.908,0,0,0-1.75,7.428c0,5.22,2.892,8.507,6.6,9.428a9.021,9.021,0,0,0,2.2.265,10.068,10.068,0,0,0,2.41-.265,6.639,6.639,0,0,0,3.707-2.309v2.073a.555.555,0,0,0,0,.092.246.246,0,0,0,.207.145H92.2a.311.311,0,0,0,.111-.034.241.241,0,0,0,.106-.149L94.63,32.113a.273.273,0,0,0,0-.063.241.241,0,0,0-.241-.241H86.344a.241.241,0,0,0-.241.178L85.5,35.053V35.1a.3.3,0,0,0,0,.1.237.237,0,0,0,.222.144h4.059a6.394,6.394,0,0,1-6.122,4.517c-3.229,0-5.264-2.328-5.264-6.3a10.716,10.716,0,0,1,2.275-6.792,7.408,7.408,0,0,1,5.818-2.806,4.525,4.525,0,0,1,4.439,2.806A10.516,10.516,0,0,1,91.5,28.2a.241.241,0,0,0,.222.149h.068l3.639-.964a.167.167,0,0,0,.068-.029.241.241,0,0,0,.116-.207v-.038a1.813,1.813,0,0,0-.068-.352m8.917-6.584a.241.241,0,0,0-.241-.241h-3.692a.242.242,0,0,0-.236.2l-1.282,6.618L95.8,43.32v.053a.2.2,0,0,0,0,.092.242.242,0,0,0,.222.149H99.71a.237.237,0,0,0,.236-.179l3.225-16.678,1.268-6.541v-.039m11.549,6.58a8.787,8.787,0,0,0-2.193-.266,11.78,11.78,0,0,0-2.632.266,8.847,8.847,0,0,0-4.256,2.41,9.909,9.909,0,0,0-2.892,7.592,6.779,6.779,0,0,0,5.162,6.854,8.806,8.806,0,0,0,2.2.265,11.57,11.57,0,0,0,2.685-.265,8.825,8.825,0,0,0,4.251-2.41,9.9,9.9,0,0,0,2.892-7.587,6.8,6.8,0,0,0-5.162-6.859m-.564,11.771a4.426,4.426,0,0,1-3.711,1.808c-1.972,0-3.278-1.605-3.278-4.213a6.7,6.7,0,0,1,1.239-4.28,4.426,4.426,0,0,1,3.712-1.784c1.971,0,3.278,1.605,3.278,4.213a6.727,6.727,0,0,1-1.239,4.28m19.546-9.371a5.321,5.321,0,0,0-3.311-2.41,6.625,6.625,0,0,0-1.851-.265,8.242,8.242,0,0,0-2.14.265,4.763,4.763,0,0,0-3.745,4.883c0,2.241,1.475,3.547,3.447,4.482s2.892,1.5,2.892,2.473c0,1.2-1.007,1.74-2.14,1.74a3.246,3.246,0,0,1-3.21-2.627.25.25,0,0,0-.231-.164.3.3,0,0,0-.091,0l-3.1,1.292a.24.24,0,0,0-.149.222v.038a6.2,6.2,0,0,0,4.309,4.5,7.3,7.3,0,0,0,2,.265,9.982,9.982,0,0,0,2.367-.265,5.26,5.26,0,0,0,4.256-5.587c0-2.338-1.74-3.475-3.475-4.28-1.137-.536-2.892-1.036-2.892-2.208a1.5,1.5,0,0,1,1.639-1.5,3,3,0,0,1,2.448,1.273.244.244,0,0,0,.193.1.281.281,0,0,0,.126-.033l2.6-1.87a.227.227,0,0,0,.063-.294m10.469-2.444a6.657,6.657,0,0,0-1.851-.266,8.288,8.288,0,0,0-2.144.266,4.761,4.761,0,0,0-3.74,4.882c0,2.242,1.446,3.548,3.446,4.483,1.9.9,2.892,1.5,2.892,2.473,0,1.2-1,1.74-2.14,1.74a3.251,3.251,0,0,1-3.215-2.637.236.236,0,0,0-.221-.154.246.246,0,0,0-.1,0l-3.1,1.288a.236.236,0,0,0-.144.222.151.151,0,0,0,0,.048,6.2,6.2,0,0,0,4.3,4.488,7.4,7.4,0,0,0,2.005.265,9.9,9.9,0,0,0,2.361-.265A5.265,5.265,0,0,0,148.1,38c0-2.338-1.74-3.476-3.48-4.281-1.138-.535-2.892-1.036-2.892-2.208A1.494,1.494,0,0,1,143.21,30a1.429,1.429,0,0,1,.162.007,2.992,2.992,0,0,1,2.443,1.267.237.237,0,0,0,.2.1.292.292,0,0,0,.125-.034l2.627-1.87a.262.262,0,0,0,.082-.188.247.247,0,0,0-.024-.107,5.284,5.284,0,0,0-3.311-2.41m10.783-.014h-3.673a.246.246,0,0,0-.231.173L149.209,43.32a.157.157,0,0,0,0,.053.28.28,0,0,0,0,.092.246.246,0,0,0,.221.149H153.1a.282.282,0,0,0,.125-.034.232.232,0,0,0,.106-.144l3.191-16.418a.246.246,0,0,0-.241-.241m13.019-.019a8.212,8.212,0,0,0-2.135-.266,10.9,10.9,0,0,0-2.41.266,9.762,9.762,0,0,0-7.587,9.664c0,3.856,2.064,6.4,5.086,7.192a8.3,8.3,0,0,0,2.135.265,10.96,10.96,0,0,0,2.5-.265,9.242,9.242,0,0,0,5.65-4.237.24.24,0,0,0-.082-.328l-2.892-1.5a.222.222,0,0,0-.1-.024.242.242,0,0,0-.183.091c-1.21,1.74-2.593,2.719-4.507,2.719a3.2,3.2,0,0,1-3.413-3.278v-.535H173.3a.287.287,0,0,0,.125-.034.253.253,0,0,0,.106-.135,11.978,11.978,0,0,0,.42-3.109c0-3.113-1.591-5.678-4.622-6.488m-7.173,6.487a4.96,4.96,0,0,1,4.483-3.21c2.106,0,3.075,1.1,3.21,3.21Zm25.273-2.7a.227.227,0,0,0,.115.029.236.236,0,0,0,.126-.034.257.257,0,0,0,.1-.116l1.229-3.254a.31.31,0,0,0,0-.1.247.247,0,0,0-.149-.222l-.227-.082a4.692,4.692,0,0,0-1.731-.265,6.085,6.085,0,0,0-1.8.265,7.109,7.109,0,0,0-3.48,2.511l.438-2.212a.231.231,0,0,0-.231-.3H178.12a.242.242,0,0,0-.236.2L174.7,43.354a.107.107,0,0,0,0,.039.19.19,0,0,0,0,.091.241.241,0,0,0,.222.15h3.731a.286.286,0,0,0,.125-.034.242.242,0,0,0,.106-.15l1.137-5.784c1-5.3,3.856-7.423,5.953-7.423a3.161,3.161,0,0,1,1.446.318M155.2,20.2a2.376,2.376,0,1,0,2.376,2.377,2.328,2.328,0,0,0-2.279-2.377h-.1M187.64,39.189a2.386,2.386,0,0,0-1.23,4.425,2.491,2.491,0,0,0,2.453,0,2.386,2.386,0,0,0-1.224-4.425" transform="translate(0)" fill="#0b1b31"></path></g></svg> 