<?xml version="1.0" encoding="UTF-8"?> <svg xmlns="http://www.w3.org/2000/svg" width="34" height="35" viewBox="0 0 34 35" fill="none"><path d="M20.2539 17.5C20.2539 19.35 18.7971 20.8496 17 20.8496C15.2029 20.8496 13.7461 19.35 13.7461 17.5C13.7461 15.65 15.2029 14.1504 17 14.1504C18.7971 14.1504 20.2539 15.65 20.2539 17.5Z" fill="#373F41"></path><path d="M24.6097 11.5736C24.4533 11.1373 24.2038 10.7424 23.8795 10.4182C23.5646 10.0844 23.1812 9.82753 22.7571 9.66651C22.4131 9.52899 21.8964 9.3653 20.9447 9.32071C19.9151 9.27238 19.6064 9.26196 17 9.26196C14.3933 9.26196 14.0846 9.27211 13.0553 9.32044C12.1036 9.3653 11.5866 9.52899 11.2429 9.66651C10.8188 9.82753 10.4351 10.0844 10.1205 10.4182C9.79622 10.7424 9.54668 11.137 9.39 11.5736C9.25641 11.9277 9.0974 12.4599 9.05408 13.4396C9.00713 14.4992 8.99701 14.817 8.99701 17.5003C8.99701 20.1834 9.00713 20.5012 9.05408 21.561C9.0974 22.5408 9.25641 23.0727 9.39 23.4268C9.54668 23.8634 9.79596 24.258 10.1202 24.5822C10.4351 24.916 10.8185 25.1729 11.2426 25.3339C11.5866 25.4717 12.1036 25.6354 13.0553 25.68C14.0846 25.7283 14.393 25.7384 16.9997 25.7384C19.6067 25.7384 19.9154 25.7283 20.9444 25.68C21.8962 25.6354 22.4131 25.4717 22.7571 25.3339C23.6085 24.9958 24.2813 24.3032 24.6097 23.4268C24.7433 23.0727 24.9023 22.5408 24.9459 21.561C24.9929 20.5012 25.0027 20.1834 25.0027 17.5003C25.0027 14.817 24.9929 14.4992 24.9459 13.4396C24.9026 12.4599 24.7436 11.9277 24.6097 11.5736V11.5736ZM17 22.6601C14.2314 22.6601 11.9871 20.3501 11.9871 17.5001C11.9871 14.6501 14.2314 12.34 17 12.34C19.7683 12.34 22.0126 14.6501 22.0126 17.5001C22.0126 20.3501 19.7683 22.6601 17 22.6601ZM22.2108 13.3419C21.5639 13.3419 21.0394 12.802 21.0394 12.136C21.0394 11.47 21.5639 10.9301 22.2108 10.9301C22.8578 10.9301 23.3823 11.47 23.3823 12.136C23.382 12.802 22.8578 13.3419 22.2108 13.3419Z" fill="#373F41"></path><path d="M17 0C7.61259 0 0 7.83649 0 17.5C0 27.1635 7.61259 35 17 35C26.3874 35 34 27.1635 34 17.5C34 7.83649 26.3874 0 17 0ZM26.7028 21.643C26.6556 22.7127 26.4904 23.443 26.2491 24.0823C25.742 25.4321 24.7055 26.4991 23.3942 27.0212C22.7735 27.2695 22.0637 27.4393 21.0248 27.4882C19.9839 27.5371 19.6513 27.5488 17.0003 27.5488C14.3489 27.5488 14.0166 27.5371 12.9754 27.4882C11.9365 27.4393 11.2268 27.2695 10.6061 27.0212C9.95445 26.7688 9.36458 26.3734 8.87691 25.862C8.38042 25.3603 7.99625 24.7528 7.75111 24.0823C7.50987 23.4433 7.34463 22.7127 7.29742 21.6432C7.24944 20.5714 7.23828 20.229 7.23828 17.5C7.23828 14.771 7.24944 14.4286 7.29716 13.357C7.34438 12.2873 7.50935 11.557 7.7506 10.9177C7.99573 10.2472 8.38016 9.63974 8.87691 9.13799C9.36432 8.62663 9.95445 8.23116 10.6058 7.97882C11.2268 7.73048 11.9363 7.56065 12.9754 7.51179C14.0164 7.46292 14.3489 7.45117 17 7.45117C19.6511 7.45117 19.9836 7.46292 21.0246 7.51205C22.0637 7.56065 22.7732 7.73048 23.3942 7.97855C24.0455 8.2309 24.6357 8.62663 25.1234 9.13799C25.6198 9.64001 26.0043 10.2472 26.2491 10.9177C26.4906 11.557 26.6556 12.2873 26.7031 13.357C26.7506 14.4286 26.7617 14.771 26.7617 17.5C26.7617 20.229 26.7506 20.5714 26.7028 21.643V21.643Z" fill="#373F41"></path></svg> 