<?xml version="1.0" encoding="UTF-8"?> <svg xmlns="http://www.w3.org/2000/svg" width="190" height="55" viewBox="0 0 190 55" fill="none"><path d="M65.6745 30.7714C64.0571 29.8794 63.2058 29.1573 63.2058 28.1378C63.2058 26.821 64.355 26.014 66.1852 26.014C68.3134 26.014 70.1861 26.906 70.1861 26.906L71.6758 22.361C71.6758 22.361 70.3138 21.2991 66.2704 21.2991C60.6521 21.2991 56.7363 24.5273 56.7363 29.0298C56.7363 31.5784 58.5665 33.5324 60.9926 34.9341C62.9505 36.0385 63.6315 36.8455 63.6315 37.9924C63.6315 39.2242 62.6525 40.2012 60.8223 40.2012C58.0983 40.2012 55.5445 38.7995 55.5445 38.7995L53.9697 43.3445C53.9697 43.3445 56.3532 44.9161 60.3116 44.9161C66.1001 44.9161 70.2287 42.0702 70.2287 36.973C70.3138 34.1695 68.1857 32.2156 65.6745 30.7714Z" fill="white"></path><path d="M88.743 21.1718C85.8913 21.1718 83.6781 22.531 81.933 24.5699L81.8479 24.5274L84.3165 11.6145H77.8895L71.6328 44.449H78.0598L80.1879 33.2352C81.0392 28.9875 83.2099 26.3964 85.2529 26.3964C86.7 26.3964 87.2533 27.3734 87.2533 28.7751C87.2533 29.6671 87.1682 30.729 86.9554 31.621L84.5293 44.4915H90.9563L93.4675 31.2387C93.7654 29.837 93.9357 28.1804 93.9357 27.0336C93.9782 23.3806 92.0629 21.1718 88.743 21.1718Z" fill="white"></path><path d="M108.535 21.1716C100.789 21.1716 95.6387 28.1378 95.6387 35.911C95.6387 40.8808 98.7032 44.9161 104.492 44.9161C112.11 44.9161 117.218 38.1198 117.218 30.1767C117.261 25.5467 114.579 21.1716 108.535 21.1716ZM105.386 39.9888C103.172 39.9888 102.278 38.1198 102.278 35.7836C102.278 32.0881 104.194 26.0989 107.684 26.0989C109.982 26.0989 110.706 28.0529 110.706 29.9643C110.706 33.9146 108.791 39.9888 105.386 39.9888Z" fill="white"></path><path d="M133.733 21.1716C129.391 21.1716 126.923 24.9945 126.923 24.9945H126.837L127.22 21.5539H121.517C121.219 23.8901 120.708 27.4157 120.198 30.0917L115.729 53.6238H122.155L123.943 44.1091H124.071C124.071 44.1091 125.39 44.9586 127.859 44.9586C135.435 44.9586 140.372 37.2278 140.372 29.4121C140.372 25.037 138.457 21.1716 133.733 21.1716ZM127.604 40.0738C125.944 40.0738 124.965 39.1393 124.965 39.1393L126.029 33.1501C126.795 29.1573 128.88 26.4812 131.094 26.4812C133.052 26.4812 133.647 28.3077 133.647 30.0068C133.647 34.1695 131.179 40.0738 127.604 40.0738Z" fill="white"></path><path d="M149.566 11.9543C147.523 11.9543 145.862 13.5688 145.862 15.6931C145.862 17.605 147.054 18.9221 148.885 18.9221H148.97C150.971 18.9221 152.716 17.5625 152.759 15.1833C152.802 13.3139 151.524 11.9543 149.566 11.9543Z" fill="white"></path><path d="M140.542 44.4489H147.012L151.395 21.6814H144.883L140.542 44.4489Z" fill="white"></path><path d="M167.74 21.639H163.271L163.484 20.5771C163.867 18.3683 165.144 16.4143 167.315 16.4143C168.464 16.4143 169.358 16.7541 169.358 16.7541L170.635 11.7419C170.635 11.7419 169.528 11.1897 167.144 11.1897C164.846 11.1897 162.59 11.8268 160.845 13.3135C158.632 15.1825 157.61 17.8585 157.1 20.5771L156.929 21.639H153.95L153.014 26.4813H155.993L152.588 44.449H159.015L162.42 26.4813H166.846L167.74 21.639Z" fill="white"></path><path d="M183.232 21.6814C183.232 21.6814 179.189 31.7909 177.401 37.3128H177.316C177.188 35.5288 175.741 21.6814 175.741 21.6814H168.974L172.847 42.5799C172.932 43.0472 172.89 43.3445 172.719 43.6419C171.953 45.0861 170.719 46.4878 169.229 47.5072C168.037 48.3992 166.675 48.9514 165.611 49.3337L167.399 54.7707C168.718 54.4734 171.4 53.4115 173.698 51.2877C176.635 48.5267 179.359 44.3215 182.126 38.5446L190 21.6814H183.232V21.6814Z" fill="white"></path><path d="M31.7944 6.94181C31.7944 6.94181 31.1985 7.11172 30.2195 7.40906C30.0493 6.85686 29.7939 6.21971 29.4534 5.54008C28.3468 3.41625 26.6868 2.26938 24.7289 2.26938C24.6013 2.26938 24.4736 2.26938 24.3033 2.31185C24.2608 2.2269 24.1756 2.18442 24.1331 2.09947C23.2393 1.20746 22.1326 0.740214 20.8132 0.78269C18.2594 0.867644 15.7056 2.69414 13.6626 5.96485C12.2155 8.25859 11.1089 11.147 10.8109 13.3983C7.8741 14.2903 5.83109 14.9274 5.78853 14.9699C4.29884 15.4372 4.25627 15.4796 4.08602 16.8814C3.87321 17.9433 0 47.8469 0 47.8469L32.1774 53.4113V6.85686C32.0072 6.85686 31.8795 6.89934 31.7944 6.94181ZM24.3459 9.23556C22.6434 9.74528 20.7706 10.34 18.9404 10.8921C19.4512 8.89574 20.4727 6.89934 21.6644 5.58256C22.1326 5.11532 22.7711 4.56312 23.4946 4.2233C24.2182 5.70999 24.3884 7.79135 24.3459 9.23556ZM20.8557 2.48176C21.4516 2.48176 21.9624 2.60919 22.388 2.86405C21.707 3.24634 21.0686 3.75606 20.4301 4.43569C18.8127 6.17723 17.5784 8.89574 17.0677 11.4868C15.5354 11.9541 14.0031 12.4213 12.5986 12.8461C13.4924 8.76831 16.94 2.60919 20.8557 2.48176ZM15.8759 25.844C16.0461 28.5625 23.2392 29.1571 23.6649 35.5711C23.9628 40.6259 20.9834 44.0665 16.6846 44.3213C11.4919 44.6611 8.64023 41.6028 8.64023 41.6028L9.74686 36.9304C9.74686 36.9304 12.5986 39.0967 14.897 38.9268C16.3867 38.8418 16.94 37.61 16.8974 36.7605C16.6846 33.1924 10.8109 33.4048 10.4279 27.543C10.1299 22.6157 13.3647 17.6035 20.5152 17.1787C23.2818 17.0088 24.6864 17.6884 24.6864 17.6884L23.069 23.8051C23.069 23.8051 21.2388 22.9555 19.0681 23.1254C15.9185 23.3378 15.8759 25.3342 15.8759 25.844ZM26.0484 8.68336C26.0484 7.40906 25.8781 5.58256 25.2823 4.0534C27.2401 4.43569 28.1765 6.602 28.6022 7.91878C27.836 8.13116 26.9848 8.4285 26.0484 8.68336Z" fill="white"></path><path d="M33.2412 53.2843L46.6059 49.9711C46.6059 49.9711 40.8599 11.1898 40.8174 10.935C40.7748 10.6801 40.562 10.5102 40.3492 10.5102C40.1364 10.5102 36.3909 10.4253 36.3909 10.4253C36.3909 10.4253 34.0925 8.21648 33.2412 7.36694V53.2843V53.2843Z" fill="white"></path></svg> 