<?xml version="1.0" encoding="UTF-8"?> <svg xmlns="http://www.w3.org/2000/svg" width="34" height="35" viewBox="0 0 34 35" fill="none"><path d="M17 0C7.61259 0 0 7.83649 0 17.5C0 27.1635 7.61259 35 17 35C26.3874 35 34 27.1635 34 17.5C34 7.83649 26.3874 0 17 0ZM24.762 13.6446C24.7695 13.8169 24.7732 13.9899 24.7732 14.1637C24.7732 19.4715 20.8484 25.592 13.6711 25.5923H13.6714H13.6711C11.4675 25.5923 9.41698 24.9274 7.69016 23.788C7.99547 23.8251 8.30623 23.8435 8.62088 23.8435C10.4491 23.8435 12.1316 23.2016 13.4672 22.1241C11.7591 22.0916 10.3189 20.9303 9.8219 19.3342C10.0598 19.3812 10.3044 19.4069 10.5552 19.4069C10.9114 19.4069 11.2564 19.3575 11.5843 19.2653C9.79881 18.8974 8.45383 17.273 8.45383 15.328C8.45383 15.3098 8.45383 15.2935 8.45435 15.2767C8.98015 15.5777 9.58144 15.7587 10.2216 15.779C9.17392 15.0594 8.48521 13.8292 8.48521 12.4355C8.48521 11.6996 8.67847 11.0101 9.01361 10.4165C10.9378 12.847 13.8135 14.4455 17.0565 14.6134C16.9896 14.3192 16.9551 14.0126 16.9551 13.6975C16.9551 11.4801 18.7027 9.68113 20.8575 9.68113C21.9799 9.68113 22.9937 10.1695 23.7057 10.9503C24.5947 10.7698 25.4294 10.4355 26.1835 9.9754C25.8917 10.9129 25.2733 11.6996 24.4676 12.1971C25.2569 12.0999 26.0092 11.8844 26.7083 11.5645C26.1861 12.3701 25.5239 13.0777 24.762 13.6446V13.6446Z" fill="#373F41"></path></svg> 